<svg width="361" height="392" viewBox="0 0 361 392" fill="none" xmlns="http://www.w3.org/2000/svg">
<path d="M73.28 380C72.12 380 71.2 379.68 70.52 379.04C69.88 378.4 69.56 377.5 69.56 376.34V341.36C69.56 340.2 69.88 339.3 70.52 338.66C71.2 338.02 72.12 337.7 73.28 337.7H85.16C92.08 337.7 97.44 339.56 101.24 343.28C105.08 346.96 107 352.14 107 358.82C107 365.54 105.08 370.76 101.24 374.48C97.44 378.16 92.08 380 85.16 380H73.28ZM84.68 373.7C94.4 373.7 99.26 368.74 99.26 358.82C99.26 348.94 94.4 344 84.68 344H77.3V373.7H84.68ZM117.854 380.36C116.774 380.36 115.874 380.06 115.154 379.46C114.474 378.82 114.134 377.92 114.134 376.76V353.6C114.134 352.44 114.474 351.56 115.154 350.96C115.874 350.36 116.774 350.06 117.854 350.06C118.934 350.06 119.834 350.36 120.554 350.96C121.274 351.56 121.634 352.44 121.634 353.6V376.76C121.634 377.92 121.274 378.82 120.554 379.46C119.834 380.06 118.934 380.36 117.854 380.36ZM117.854 344.72C116.494 344.72 115.414 344.36 114.614 343.64C113.814 342.88 113.414 341.9 113.414 340.7C113.414 339.5 113.814 338.54 114.614 337.82C115.414 337.1 116.494 336.74 117.854 336.74C119.174 336.74 120.234 337.1 121.034 337.82C121.874 338.54 122.294 339.5 122.294 340.7C122.294 341.9 121.894 342.88 121.094 343.64C120.294 344.36 119.214 344.72 117.854 344.72ZM142.089 349.94C146.169 349.94 149.189 350.96 151.149 353C153.149 355 154.149 358.06 154.149 362.18V376.82C154.149 377.9 153.829 378.76 153.189 379.4C152.549 380 151.669 380.3 150.549 380.3C149.509 380.3 148.649 379.98 147.969 379.34C147.329 378.7 147.009 377.86 147.009 376.82V375.5C146.329 377.06 145.249 378.28 143.769 379.16C142.329 380.04 140.649 380.48 138.729 380.48C136.769 380.48 134.989 380.08 133.389 379.28C131.789 378.48 130.529 377.38 129.609 375.98C128.689 374.58 128.229 373.02 128.229 371.3C128.229 369.14 128.769 367.44 129.849 366.2C130.969 364.96 132.769 364.06 135.249 363.5C137.729 362.94 141.149 362.66 145.509 362.66H147.009V361.28C147.009 359.32 146.589 357.9 145.749 357.02C144.909 356.1 143.549 355.64 141.669 355.64C140.509 355.64 139.329 355.82 138.129 356.18C136.929 356.5 135.509 356.98 133.869 357.62C132.829 358.14 132.069 358.4 131.589 358.4C130.869 358.4 130.269 358.14 129.789 357.62C129.349 357.1 129.129 356.42 129.129 355.58C129.129 354.9 129.289 354.32 129.609 353.84C129.969 353.32 130.549 352.84 131.349 352.4C132.749 351.64 134.409 351.04 136.329 350.6C138.289 350.16 140.209 349.94 142.089 349.94ZM140.229 375.08C142.229 375.08 143.849 374.42 145.089 373.1C146.369 371.74 147.009 370 147.009 367.88V366.62H145.929C143.249 366.62 141.169 366.74 139.689 366.98C138.209 367.22 137.149 367.64 136.509 368.24C135.869 368.84 135.549 369.66 135.549 370.7C135.549 371.98 135.989 373.04 136.869 373.88C137.789 374.68 138.909 375.08 140.229 375.08ZM143.589 346.64C143.149 346.96 142.709 347.12 142.269 347.12C141.709 347.12 141.229 346.94 140.829 346.58C140.469 346.18 140.289 345.72 140.289 345.2C140.289 344.76 140.449 344.32 140.769 343.88L146.589 336.14C147.509 334.94 148.569 334.34 149.769 334.34C150.649 334.34 151.389 334.66 151.989 335.3C152.629 335.9 152.949 336.62 152.949 337.46C152.949 338.58 152.409 339.54 151.329 340.34L143.589 346.64ZM165.491 380.36C164.411 380.36 163.511 380.06 162.791 379.46C162.111 378.82 161.771 377.92 161.771 376.76V340.94C161.771 339.78 162.111 338.9 162.791 338.3C163.511 337.7 164.411 337.4 165.491 337.4C166.571 337.4 167.471 337.7 168.191 338.3C168.911 338.9 169.271 339.78 169.271 340.94V376.76C169.271 377.92 168.911 378.82 168.191 379.46C167.471 380.06 166.571 380.36 165.491 380.36ZM190.385 380.48C187.385 380.48 184.745 379.86 182.465 378.62C180.225 377.38 178.485 375.6 177.245 373.28C176.005 370.96 175.385 368.26 175.385 365.18C175.385 362.1 176.005 359.42 177.245 357.14C178.485 354.82 180.225 353.04 182.465 351.8C184.745 350.56 187.385 349.94 190.385 349.94C193.385 349.94 196.005 350.56 198.245 351.8C200.525 353.04 202.265 354.82 203.465 357.14C204.705 359.42 205.325 362.1 205.325 365.18C205.325 368.26 204.705 370.96 203.465 373.28C202.265 375.6 200.525 377.38 198.245 378.62C196.005 379.86 193.385 380.48 190.385 380.48ZM190.325 374.66C192.765 374.66 194.625 373.86 195.905 372.26C197.185 370.66 197.825 368.3 197.825 365.18C197.825 362.1 197.185 359.76 195.905 358.16C194.625 356.52 192.785 355.7 190.385 355.7C187.985 355.7 186.125 356.52 184.805 358.16C183.525 359.76 182.885 362.1 182.885 365.18C182.885 368.3 183.525 370.66 184.805 372.26C186.085 373.86 187.925 374.66 190.325 374.66ZM236.357 350.06C237.477 350.06 238.377 350.38 239.057 351.02C239.737 351.66 240.077 352.52 240.077 353.6V377.3C240.077 381.9 238.797 385.38 236.237 387.74C233.677 390.1 229.897 391.28 224.897 391.28C220.537 391.28 216.897 390.46 213.977 388.82C212.497 387.94 211.757 386.88 211.757 385.64C211.757 384.76 211.957 384.06 212.357 383.54C212.797 383.02 213.357 382.76 214.037 382.76C214.397 382.76 214.837 382.84 215.357 383C215.877 383.2 216.417 383.42 216.977 383.66C218.417 384.26 219.697 384.72 220.817 385.04C221.977 385.36 223.297 385.52 224.777 385.52C230.017 385.52 232.637 382.96 232.637 377.84V374C231.757 375.64 230.477 376.92 228.797 377.84C227.117 378.72 225.197 379.16 223.037 379.16C220.477 379.16 218.197 378.56 216.197 377.36C214.237 376.12 212.697 374.4 211.577 372.2C210.457 370 209.897 367.46 209.897 364.58C209.897 361.7 210.437 359.16 211.517 356.96C212.637 354.72 214.197 353 216.197 351.8C218.197 350.56 220.477 349.94 223.037 349.94C225.197 349.94 227.117 350.4 228.797 351.32C230.477 352.2 231.757 353.46 232.637 355.1V353.54C232.637 352.5 232.977 351.66 233.657 351.02C234.337 350.38 235.237 350.06 236.357 350.06ZM225.017 373.34C227.417 373.34 229.277 372.56 230.597 371C231.957 369.44 232.637 367.3 232.637 364.58C232.637 361.82 231.957 359.66 230.597 358.1C229.277 356.54 227.417 355.76 225.017 355.76C222.657 355.76 220.797 356.54 219.437 358.1C218.077 359.66 217.397 361.82 217.397 364.58C217.397 367.3 218.077 369.44 219.437 371C220.797 372.56 222.657 373.34 225.017 373.34ZM261.225 380.48C258.225 380.48 255.585 379.86 253.305 378.62C251.065 377.38 249.325 375.6 248.085 373.28C246.845 370.96 246.225 368.26 246.225 365.18C246.225 362.1 246.845 359.42 248.085 357.14C249.325 354.82 251.065 353.04 253.305 351.8C255.585 350.56 258.225 349.94 261.225 349.94C264.225 349.94 266.845 350.56 269.085 351.8C271.365 353.04 273.105 354.82 274.305 357.14C275.545 359.42 276.165 362.1 276.165 365.18C276.165 368.26 275.545 370.96 274.305 373.28C273.105 375.6 271.365 377.38 269.085 378.62C266.845 379.86 264.225 380.48 261.225 380.48ZM261.165 374.66C263.605 374.66 265.465 373.86 266.745 372.26C268.025 370.66 268.665 368.3 268.665 365.18C268.665 362.1 268.025 359.76 266.745 358.16C265.465 356.52 263.625 355.7 261.225 355.7C258.825 355.7 256.965 356.52 255.645 358.16C254.365 359.76 253.725 362.1 253.725 365.18C253.725 368.3 254.365 370.66 255.645 372.26C256.925 373.86 258.765 374.66 261.165 374.66Z" fill="white"/>
<g clip-path="url(#clip0)">
<path d="M202.753 180.5V101.377C202.753 85.9901 190.235 73.4717 174.848 73.4717H27.9051C12.5184 73.4717 0 85.9901 0 101.377V180.5C0 195.887 12.5184 208.405 27.9051 208.405H107.382V231.365C107.382 233.508 108.672 235.441 110.653 236.26C111.308 236.531 111.996 236.663 112.679 236.663C114.058 236.663 115.413 236.125 116.427 235.111L143.133 208.405H174.848C190.235 208.405 202.753 195.887 202.753 180.5ZM140.938 197.808C139.533 197.808 138.185 198.366 137.192 199.36L117.978 218.574V203.107C117.978 200.181 115.606 197.808 112.68 197.808H27.9051C18.3615 197.808 10.5969 190.044 10.5969 180.5V101.377C10.5969 91.8332 18.3615 84.0686 27.9051 84.0686H174.848C184.392 84.0686 192.157 91.8332 192.157 101.377V180.5C192.157 190.044 184.392 197.808 174.848 197.808H140.938Z" fill="white"/>
<path d="M33.5567 112.327H50.5117C53.4379 112.327 55.8102 109.955 55.8102 107.028C55.8102 104.102 53.4379 101.73 50.5117 101.73H33.5567C30.6306 101.73 28.2583 104.102 28.2583 107.028C28.2583 109.955 30.6306 112.327 33.5567 112.327Z" fill="white"/>
<path d="M169.197 101.73H73.1183C70.1921 101.73 67.8198 104.102 67.8198 107.028C67.8198 109.955 70.1921 112.327 73.1183 112.327H169.197C172.123 112.327 174.495 109.955 174.495 107.028C174.495 104.102 172.123 101.73 169.197 101.73Z" fill="white"/>
<path d="M169.197 124.337H33.5567C30.6306 124.337 28.2583 126.709 28.2583 129.635C28.2583 132.561 30.6306 134.934 33.5567 134.934H169.197C172.123 134.934 174.495 132.561 174.495 129.635C174.495 126.709 172.123 124.337 169.197 124.337Z" fill="white"/>
<path d="M169.197 146.943H152.242C149.316 146.943 146.943 149.316 146.943 152.242C146.943 155.168 149.316 157.54 152.242 157.54H169.197C172.123 157.54 174.495 155.168 174.495 152.242C174.495 149.316 172.123 146.943 169.197 146.943Z" fill="white"/>
<path d="M33.5567 157.54H129.635C132.561 157.54 134.933 155.168 134.933 152.242C134.933 149.316 132.561 146.943 129.635 146.943H33.5567C30.6306 146.943 28.2583 149.316 28.2583 152.242C28.2583 155.168 30.6306 157.54 33.5567 157.54Z" fill="white"/>
<path d="M169.197 169.55H33.5567C30.6306 169.55 28.2583 171.922 28.2583 174.848C28.2583 177.775 30.6306 180.147 33.5567 180.147H169.197C172.123 180.147 174.495 177.775 174.495 174.848C174.495 171.922 172.123 169.55 169.197 169.55Z" fill="white"/>
<path d="M220.062 163.192H237.017C239.943 163.192 242.315 160.82 242.315 157.893C242.315 154.967 239.943 152.595 237.017 152.595H220.062C217.135 152.595 214.763 154.967 214.763 157.893C214.763 160.82 217.135 163.192 220.062 163.192Z" fill="white"/>
<path d="M327.443 163.192C330.369 163.192 332.742 160.82 332.742 157.893C332.742 154.967 330.369 152.595 327.443 152.595H259.623C256.697 152.595 254.325 154.967 254.325 157.893C254.325 160.82 256.697 163.192 259.623 163.192H327.443Z" fill="white"/>
<path d="M220.062 185.799H327.443C330.369 185.799 332.742 183.426 332.742 180.5C332.742 177.574 330.369 175.202 327.443 175.202H220.062C217.135 175.202 214.763 177.574 214.763 180.5C214.763 183.426 217.135 185.799 220.062 185.799Z" fill="white"/>
<path d="M327.443 197.808H310.488C307.562 197.808 305.19 200.181 305.19 203.107C305.19 206.033 307.562 208.405 310.488 208.405H327.443C330.37 208.405 332.742 206.033 332.742 203.107C332.742 200.181 330.37 197.808 327.443 197.808Z" fill="white"/>
<path d="M220.062 208.405H287.882C290.808 208.405 293.18 206.033 293.18 203.107C293.18 200.181 290.808 197.808 287.882 197.808H220.062C217.135 197.808 214.763 200.181 214.763 203.107C214.763 206.033 217.135 208.405 220.062 208.405Z" fill="white"/>
<path d="M327.443 220.415H186.151C183.225 220.415 180.853 222.787 180.853 225.713C180.853 228.64 183.225 231.012 186.151 231.012H327.443C330.369 231.012 332.742 228.64 332.742 225.713C332.742 222.787 330.369 220.415 327.443 220.415Z" fill="white"/>
<path d="M333.095 124.337H220.062C217.135 124.337 214.763 126.709 214.763 129.635C214.763 132.561 217.135 134.934 220.062 134.934H333.095C342.638 134.934 350.403 142.698 350.403 152.242V231.365C350.403 240.909 342.638 248.673 333.095 248.673H248.32C245.394 248.673 243.022 251.046 243.022 253.972V269.439L223.808 250.225C222.815 249.231 221.467 248.673 220.062 248.673H186.152C176.608 248.673 168.843 240.909 168.843 231.365V225.713C168.843 222.787 166.471 220.415 163.545 220.415C160.619 220.415 158.247 222.787 158.247 225.713V231.365C158.247 246.752 170.765 259.27 186.152 259.27H217.867L244.574 285.976C245.587 286.99 246.942 287.528 248.321 287.528C249.004 287.528 249.693 287.396 250.348 287.125C252.328 286.305 253.619 284.373 253.619 282.23V259.27H333.096C348.482 259.27 361.001 246.752 361.001 231.365V152.242C361 136.855 348.482 124.337 333.095 124.337Z" fill="white"/>
</g>
<defs>
<clipPath id="clip0">
<rect width="361" height="361" fill="white"/>
</clipPath>
</defs>
</svg>
