<svg width="65" height="63" viewBox="0 0 65 63" fill="none" xmlns="http://www.w3.org/2000/svg">
	<path d="M41.4032 23.3662L42.0404 24.6387L43.4599 24.7404L59.963 25.9232L55.9347 30.765L51.0235 36.6681L49.4049 38.6135L48.9514 39.1587L48.8319 39.3024L48.8011 39.3394L48.7931 39.349L48.7906 39.352L48.789 39.3539C48.7878 39.3553 48.6182 39.5857 48.4768 39.8324L48.1005 40.585L48.2558 41.412L51.4992 58.6786L33.5301 50.5415L32.4987 50.0744L31.4674 50.5415L13.4833 58.687L16.6782 41.4068L16.8906 40.2579L16.1455 39.3579L5.02118 25.9222L21.4131 24.7401L22.8244 24.6384L23.4636 23.376L32.4863 5.55855L41.4032 23.3662Z" stroke="#398aff" stroke-opacity="0.5" stroke-width="5"/>
</svg>
