<?xml version="1.0" encoding="utf-8"?>
<!-- Generator: Adobe Illustrator 21.0.0, SVG Export Plug-In . SVG Version: 6.00 Build 0)  -->
<svg version="1.1" id="Layer_1" xmlns="http://www.w3.org/2000/svg" xmlns:xlink="http://www.w3.org/1999/xlink" x="0px" y="0px"
	 viewBox="0 0 300 300" style="enable-background:new 0 0 300 300;" xml:space="preserve">
<style type="text/css">
	.st0{fill:#398aff;}
	.st1{fill:#FFFFFF;}
	.st2{opacity:0.1;}
	.st3{clip-path:url(#SVGID_2_);}
</style>
<g>
	<path class="st0" d="M116,169.6l-0.2-0.1c-31.2-13.5-51.3-44.1-51.3-78c0-46.9,38.1-85,85-85s85,38.1,85,85c0,34.3-20.4,65-52,78.3
		l-0.2,0.1l-31.9,100.3L116,169.6z"/>
	<path class="st0" d="M149.5,7C196.1,7,234,44.9,234,91.5c0,34.1-20.3,64.6-51.6,77.9l-0.4,0.2l-0.1,0.4l-31.3,98.6l-33.9-98.9
		l-0.1-0.4l-0.4-0.2c-31-13.4-51-43.9-51-77.6C65,44.9,102.9,7,149.5,7 M149.5,6C102.3,6,64,44.3,64,91.5
		c0,35.2,21.2,65.4,51.6,78.5l34.9,101.8l32.2-101.5c30.7-13,52.3-43.4,52.3-78.8C235,44.3,196.7,6,149.5,6L149.5,6z"/>
</g>
<g>
	<path class="st1" d="M149.5,126.5c-19.3,0-35-15.7-35-35s15.7-35,35-35s35,15.7,35,35S168.8,126.5,149.5,126.5z"/>
	<path class="st1" d="M149.5,57c19,0,34.5,15.5,34.5,34.5S168.5,126,149.5,126S115,110.5,115,91.5S130.5,57,149.5,57 M149.5,56
		C129.9,56,114,71.9,114,91.5s15.9,35.5,35.5,35.5S185,111.1,185,91.5S169.1,56,149.5,56L149.5,56z"/>
</g>
<g>
	<path class="st0" d="M150.5,296.5c-5,0-9-4.1-9-9.2c0-5.1,4-9.2,9-9.2c5,0,9,4.1,9,9.2C159.5,292.4,155.5,296.5,150.5,296.5z"/>
	<g>
		<path class="st0" d="M150.5,278.6c4.7,0,8.5,3.9,8.5,8.7s-3.8,8.7-8.5,8.7s-8.5-3.9-8.5-8.7S145.8,278.6,150.5,278.6 M150.5,277.6
			c-5.2,0-9.5,4.3-9.5,9.7s4.3,9.7,9.5,9.7s9.5-4.3,9.5-9.7S155.7,277.6,150.5,277.6L150.5,277.6z"/>
	</g>
</g>
<g class="st2">
	<defs>
		<rect id="SVGID_1_" x="150" y="-18" class="st2" width="86" height="298"/>
	</defs>
	<clipPath id="SVGID_2_">
		<use xlink:href="#SVGID_1_"  style="overflow:visible;"/>
	</clipPath>
	<g class="st3">
		<path d="M116,169.6l-0.2-0.1c-31.2-13.5-51.3-44.1-51.3-78c0-46.9,38.1-85,85-85s85,38.1,85,85c0,34.3-20.4,65-52,78.3l-0.2,0.1
			l-31.9,100.3L116,169.6z"/>
		<path d="M149.5,7C196.1,7,234,44.9,234,91.5c0,34.1-20.3,64.6-51.6,77.9l-0.4,0.2l-0.1,0.4l-31.3,98.6l-33.9-98.9l-0.1-0.4
			l-0.4-0.2c-31-13.4-51-43.9-51-77.6C65,44.9,102.9,7,149.5,7 M149.5,6C102.3,6,64,44.3,64,91.5c0,35.2,21.2,65.4,51.6,78.5
			l34.9,101.8l32.2-101.5c30.7-13,52.3-43.4,52.3-78.8C235,44.3,196.7,6,149.5,6L149.5,6z"/>
	</g>
</g>
</svg>
