<?xml version="1.0" encoding="iso-8859-1"?>
<!-- Generator: Adobe Illustrator 18.0.0, SVG Export Plug-In . SVG Version: 6.00 Build 0)  -->
<!DOCTYPE svg PUBLIC "-//W3C//DTD SVG 1.1//EN" "http://www.w3.org/Graphics/SVG/1.1/DTD/svg11.dtd">
<svg fill="white" xmlns="http://www.w3.org/2000/svg" xmlns:xlink="http://www.w3.org/1999/xlink"
	 viewBox="0 0 493.004 493.004">
<path id="XMLID_419_" d="M441.934,51.128H221.175l-8.914-17.2c-8.207-18.388-26.482-30.245-46.634-30.245H51.072
	C22.872,3.682,0,26.547,0,54.77v332.922c0,24.902,20.185,45.086,45.095,45.086h210.257c-0.201-4.459-0.521-8.743-0.521-13.511
	c0-49.081,10.951-82.438,30.749-96.029v-14.041c0-57.521,46.805-104.324,104.334-104.324c52.364,0,95.718,38.83,103.09,89.18
	v-191.87C493.004,73.976,470.14,51.128,441.934,51.128z M441.709,141.013H51.305V54.994h114.178
	c0.385,0.867,0.802,1.717,1.244,2.584l8.919,17.167c8.825,17.008,26.379,27.662,45.529,27.662h220.534V141.013z"/>
<path id="XMLID_415_" d="M471.634,349.248h-10.261v-40.051c0-39.404-32.059-71.465-71.458-71.465
	c-39.414,0-71.473,32.061-71.473,71.465v40.051h-10.277c-11.311,0-20.472,31.35-20.472,70.02c0,38.702,9.161,70.055,20.472,70.055
	h81.382h0.713h81.375c11.31,0,20.474-31.353,20.474-70.055C492.107,380.598,482.944,349.248,471.634,349.248z M408.359,451.151
	c0,5.681-4.606,10.284-10.278,10.284h-16.375c-5.671,0-10.276-4.604-10.276-10.284v-46.95c0-5.68,4.605-10.283,10.276-10.283
	h16.375c5.672,0,10.278,4.603,10.278,10.283V451.151z M427.614,349.248h-37.355h-0.713h-37.329v-40.051
	c0-20.794,16.896-37.705,37.697-37.705c20.788,0,37.7,16.911,37.7,37.705V349.248z"/>
</svg>
