<svg id="tech_viz" data-name="tech viz" xmlns="http://www.w3.org/2000/svg" viewBox="27 343 746 172" width="746"
	height="172">
	<g>
		<g stroke-miterlimit="10" stroke="#1d1d1b">
			<path
				d="M115.65,484.07q-11.78,4.89-17.06,5.85a56.74,56.74,0,0,1-10.16,1,45.17,45.17,0,0,1-19.15-4A28,28,0,0,1,56.19,475q-4.41-7.9-4.41-24.39V410.35h-25V396.48h25V356.25H68.36v40.23h44.5v13.87H68.36v40q0,12.12,2.88,17.1a17.53,17.53,0,0,0,7.68,7.28A25.55,25.55,0,0,0,90.18,477q12.12,0,25.47-7.59Z" />
			<path
				d="M228.45,481.46q-20,9.51-37.78,9.51a44.32,44.32,0,0,1-24.17-6.72,48.07,48.07,0,0,1-17.06-19.19,57.65,57.65,0,0,1-6.41-26.7,59.66,59.66,0,0,1,6.11-26.31,47.16,47.16,0,0,1,17-19.63,44,44,0,0,1,24.34-7q17.81,0,28.58,12.7t10.77,39.22v3.57H160.92a41,41,0,0,0,4.36,18.94,31.24,31.24,0,0,0,11.43,12.87,30.15,30.15,0,0,0,16,4.32q16.14,0,35.69-10.73Zm-66.49-53h49.82V426q0-12.23-6-19.46t-16-7.24a24,24,0,0,0-17.54,7.37Q164.84,414,162,428.41Z" />
			<path
				d="M342.64,485.21a99.36,99.36,0,0,1-31.85,5.67,51.22,51.22,0,0,1-26.74-6.94,49.1,49.1,0,0,1-18.19-18.8,54.92,54.92,0,0,1-6.54-27q0-22.77,14.83-37.78a48.49,48.49,0,0,1,35.77-15,102.11,102.11,0,0,1,32.72,5.85v16q-17.44-7.93-31.23-7.94a34.68,34.68,0,0,0-17.19,4.49q-8,4.5-12.44,14.09a46.9,46.9,0,0,0-4.4,19.72q0,13.44,8.46,25.7t26.52,12.26a76.53,76.53,0,0,0,10.78-.75q5.28-.73,19.5-5.54Z" />
			<path
				d="M371.76,488.09V343.69h16.67V410a56.73,56.73,0,0,1,17.23-18.06q10.08-6.56,20.2-6.55a29.12,29.12,0,0,1,15.57,4.32q7,4.32,9.73,10.52a35.58,35.58,0,0,1,3.1,10q.83,5.33.83,22v55.84H438.42V430.24q0-14.48-1.39-19.06a15,15,0,0,0-5.11-7.55,12.63,12.63,0,0,0-8.07-3Q415,400.66,405,409a67.42,67.42,0,0,0-16.57,20.82v58.28Z" />
		</g>
		<g fill="#398aff">
			<rect x="470.75" y="345.61" width="92.73" height="168.88" />
			<rect x="575.62" y="343.97" width="92.73" height="168.88" />
			<rect x="679.85" y="343.97" width="92.73" height="168.88" />
		</g>
		<g stroke-miterlimit="10" fill="#ffffff" stroke="#ffffff">
			<path d="M509.67,490l-43.37-99.9h18.24l34.29,79.05,35-79.05h16.57L526.68,490Z" />
			<path
				d="M602.87,490V404H575.13V390.11h44.41v86h27.83V490Zm-2.79-136q0-5.58,3.84-8.38a10.91,10.91,0,0,1,14.57,0q3.84,2.81,3.84,8.38t-3.84,8.38a10.91,10.91,0,0,1-14.57,0Q600.08,359.57,600.08,354Z" />
			<path d="M677.68,490V474.74L739,404H679.16V390.11H761V404l-61.77,70.76H763.1V490Z" />
		</g>
	</g>
</svg>