<?xml version="1.0" encoding="iso-8859-1"?>
<!-- Generator: Adobe Illustrator 19.0.0, SVG Export Plug-In . SVG Version: 6.00 Build 0)  -->
<svg xmlns="http://www.w3.org/2000/svg" xmlns:xlink="http://www.w3.org/1999/xlink"
	 viewBox="0 0 489.813 489.813" fill="white">
<path d="M489.6,119.985c-1-5.2-5.9-8.8-11.2-8.1l-41.9,5.2c-5.8,0.7-9.8,6.2-8.7,12c1,5.2,5.9,8.8,11.2,8.1l41.9-5.2
	C486.8,131.185,490.8,125.785,489.6,119.985z"/>
<path d="M27.5,463.485c4.5,1.6,9.3,2.6,14.3,2.6h131.7h22.8h1.8h0.1l44.5-24.1l6.6-3.4H249l45.1-24.4l0,0l44.6-22.1l0,0
	c11-5,22.4-11.1,30.2-17.9c25.7-22.2,9.1-38.7,7.7-40c-0.1-0.1-0.1-0.1,0-0.2c9.1-20.2-6.6-30.5-8.1-31.4c-0.1,0-0.1-0.1-0.1-0.2
	c5.8-21.9-13.1-27.4-15-27.9c-0.1,0-0.1-0.1-0.1-0.2c0.1-1.7,0.3-16.6-14.1-20.1c-12.8-3.1-30.6,7.9-40.9,15.4
	c-0.1,0.1-0.2,0-0.2,0l-24.9-26.7c-0.1-0.1-0.1-0.2,0-0.3l21.2-11.7c0.1-0.1,0.1-0.2,0.1-0.3l-4.6-8.3c-0.1-0.1,0-0.2,0.1-0.3
	c27.7-9.8,75.4-22,119.8-10.4c0,0,0.1,0,0.1,0.1c3.1,4.9,9.8,6.4,14.8,3c4.5-3.1,5.5-9.5,2.8-14.3l-29.4-53.5c0-0.1,0-0.1,0-0.2
	c9.3-10.9,11.4-26.7,4.1-40s-21.8-20-36-18c-0.1,0-0.1,0-0.2-0.1l-29.1-53c-2.6-4.8-8.5-7.4-13.6-5.3c-5.6,2.4-7.9,8.8-5.4,14.1
	v0.1c-14,43.7-49.9,77.4-73,95.5c-0.1,0.1-0.2,0-0.3-0.1l-4.6-8.3c-0.1-0.1-0.2-0.1-0.3-0.1l-57.7,31.7
	c-11.6,6.4-15.9,21-9.5,32.6l4.9,9c0,0.1,0,0.2-0.1,0.3l-6,3.3c-4,2.2-5.4,7.1-3.2,11.1l14.2,25.8c2.2,4,7.1,5.4,11.1,3.2l6-3.3
	c0.1-0.1,0.2,0,0.3,0.1l4.2,7.7c6.4,11.6,21,15.9,32.6,9.5l5-2.8c0.1,0,0.2,0,0.2,0l19.9,21.7c0.1,0.1,0.1,0.2-0.1,0.3
	c-20.9,8.2-31.1,39.1-31.1,39.1c-1.5,5.8-1.5,11.4-1,15.6l0,0c0.1,1,0.3,2,0.4,2.9c0.1,1.3-0.3,3.4-1,5.9c-1.7,6-6,11-11.5,14.1
	l-147.7,79H46.8c-10.7,0-19.3-8.7-19.3-19.3v-5.8v-172.5H155l-5.9-10.7c-3.8-7-4.7-15.1-2.5-22.7c0.8-2.9,2.1-5.6,3.7-8
	c-3.1-8.9-3.3-18.4-0.7-27.6c1.2-4,2.9-7.8,5-11.2H42.5c-23.5,0-42.5,19-42.5,42.5v221.5C0,442.385,11.4,457.685,27.5,463.485z
		M115.3,189.585c6.6,0,12,5.4,12,12c0,6.7-5.4,12-12,12c-6.7,0-12-5.4-12-12C103.3,194.985,108.7,189.585,115.3,189.585z
		M80.2,189.585L80.2,189.585c5.8,0,10.7,4.1,11.8,9.6c0.2,0.8,0.2,1.6,0.2,2.4s-0.1,1.6-0.2,2.4c-1.1,5.5-6,9.6-11.8,9.6l0,0
	c-6.6,0-12-5.4-12-12C68.1,194.985,73.5,189.585,80.2,189.585z M45,189.585c6.7,0,12,5.4,12,12c0,6.7-5.4,12-12,12s-12-5.4-12-12
	C32.9,194.985,38.3,189.585,45,189.585z"/>
<path d="M417.2,99.085c2.7,4.9,8.8,6.7,13.7,4l36.3-19.9c4.9-2.7,6.7-8.8,4-13.7l-0.1-0.2c-2.7-4.9-8.8-6.7-13.7-4l-36.3,19.9
	c-4.9,2.7-6.7,8.8-4,13.7L417.2,99.085z"/>
<path d="M329.3,424.285v-3.1l-25.1,12.4l-60.1,32.4h43.4C310.6,466.085,329.3,447.385,329.3,424.285z"/>
<path d="M438.3,26.485c-4.2-4-11-3.6-14.7,0.9l-27,32.5c-3.4,4.1-3,10.1,0.8,13.8c4.2,4,11,3.6,14.7-0.9l26.9-32.5
	C442.5,36.185,442.1,30.085,438.3,26.485z"/>
</svg>
