<svg width="88" height="84" viewBox="0 0 88 84" fill="none" xmlns="http://www.w3.org/2000/svg">
	<mask id="path-1-inside-1" fill="white">
		<path d="M45.1632 30.6386C43.5063 30.6386 42.1632 29.2955 42.1632 27.6386V20.2483C42.1632 8.47639 32.2546 0.842102 20.222 0.842102C8.18943 0.842102 0.578857 11.0712 0.578857 20.2483V31.4558C0.578857 33.1126 1.922 34.4558 3.57886 34.4558H4.85585C6.51271 34.4558 7.85585 33.1126 7.85585 31.4558V20.2483C7.85585 13.7572 10.4473 8.47639 20.222 8.47639C29.9967 8.47639 34.8862 12.0263 34.8862 20.2483V27.6386C34.8862 29.2955 33.543 30.6386 31.8862 30.6386H29.7155C28.0587 30.6386 26.7155 31.9818 26.7155 33.6386V80.7368C26.7155 82.3937 28.0586 83.7368 29.7155 83.7368H84.421C86.0778 83.7368 87.421 82.3937 87.421 80.7368V33.6386C87.421 31.9818 86.0778 30.6386 84.421 30.6386H45.1632ZM78.995 73.1025C78.995 74.7594 77.6518 76.1025 75.995 76.1025H36.9925C35.3356 76.1025 33.9925 74.7594 33.9925 73.1025V41.2729C33.9925 39.6161 35.3356 38.2729 36.9925 38.2729H75.995C77.6518 38.2729 78.995 39.6161 78.995 41.2729V73.1025Z"/>
	</mask>
	<path d="M45.1632 30.6386C43.5063 30.6386 42.1632 29.2955 42.1632 27.6386V20.2483C42.1632 8.47639 32.2546 0.842102 20.222 0.842102C8.18943 0.842102 0.578857 11.0712 0.578857 20.2483V31.4558C0.578857 33.1126 1.922 34.4558 3.57886 34.4558H4.85585C6.51271 34.4558 7.85585 33.1126 7.85585 31.4558V20.2483C7.85585 13.7572 10.4473 8.47639 20.222 8.47639C29.9967 8.47639 34.8862 12.0263 34.8862 20.2483V27.6386C34.8862 29.2955 33.543 30.6386 31.8862 30.6386H29.7155C28.0587 30.6386 26.7155 31.9818 26.7155 33.6386V80.7368C26.7155 82.3937 28.0586 83.7368 29.7155 83.7368H84.421C86.0778 83.7368 87.421 82.3937 87.421 80.7368V33.6386C87.421 31.9818 86.0778 30.6386 84.421 30.6386H45.1632ZM78.995 73.1025C78.995 74.7594 77.6518 76.1025 75.995 76.1025H36.9925C35.3356 76.1025 33.9925 74.7594 33.9925 73.1025V41.2729C33.9925 39.6161 35.3356 38.2729 36.9925 38.2729H75.995C77.6518 38.2729 78.995 39.6161 78.995 41.2729V73.1025Z" fill="#398aff"/>
	<path d="M72.1632 27.6386V20.2483H12.1632V27.6386H72.1632ZM72.1632 20.2483C72.1632 -12.5088 44.0311 -29.1579 20.222 -29.1579V30.8421C20.06 30.8421 18.4017 30.7942 16.2886 29.0002C15.1953 28.072 14.0939 26.7466 13.2873 25.0341C12.467 23.2927 12.1632 21.5979 12.1632 20.2483H72.1632ZM20.222 -29.1579C-10.6957 -29.1579 -29.4211 -3.08167 -29.4211 20.2483H30.5789C30.5789 23.58 29.3796 25.8785 27.9702 27.4111C26.1802 29.3575 23.2877 30.8421 20.222 30.8421V-29.1579ZM-29.4211 20.2483V31.4558H30.5789V20.2483H-29.4211ZM3.57886 64.4558H4.85585V4.45577H3.57886V64.4558ZM37.8559 31.4558V20.2483H-22.1441V31.4558H37.8559ZM37.8559 20.2483C37.8559 20.5018 37.8443 21.8313 37.2946 23.7873C36.7109 25.8642 35.4643 28.8176 32.9268 31.7106C27.1809 38.2613 20.5588 38.4764 20.222 38.4764V-21.5236C10.1105 -21.5236 -2.69473 -18.6681 -12.18 -7.85426C-20.9947 2.19519 -22.1441 13.8166 -22.1441 20.2483H37.8559ZM20.222 38.4764C22.4776 38.4764 18.0513 39.0736 12.7161 34.8931C9.75032 32.5692 7.52976 29.5319 6.21593 26.3307C5.00068 23.3696 4.88617 21.0814 4.88617 20.2483H64.8862C64.8862 9.93105 61.5054 -3.1025 49.7231 -12.3349C39.4996 -20.3459 27.7411 -21.5236 20.222 -21.5236V38.4764ZM4.88617 20.2483V27.6386H64.8862V20.2483H4.88617ZM31.8862 0.63863H29.7155V60.6386H31.8862V0.63863ZM-3.2845 33.6386V80.7368H56.7155V33.6386H-3.2845ZM29.7155 113.737H84.421V53.7368H29.7155V113.737ZM117.421 80.7368V33.6386H57.421V80.7368H117.421ZM84.421 0.63863H45.1632V60.6386H84.421V0.63863ZM75.995 46.1025H36.9925V106.103H75.995V46.1025ZM63.9925 73.1025V41.2729H3.9925V73.1025H63.9925ZM36.9925 68.2729H75.995V8.27292H36.9925V68.2729ZM48.995 41.2729V73.1025H108.995V41.2729H48.995ZM75.995 68.2729C61.0833 68.2729 48.995 56.1846 48.995 41.2729H108.995C108.995 23.0475 94.2204 8.27292 75.995 8.27292V68.2729ZM75.995 106.103C94.2204 106.103 108.995 91.3279 108.995 73.1025H48.995C48.995 58.1909 61.0832 46.1025 75.995 46.1025V106.103ZM117.421 33.6386C117.421 15.4133 102.646 0.63863 84.421 0.63863V60.6386C69.5092 60.6386 57.421 48.5503 57.421 33.6386H117.421ZM84.421 113.737C102.646 113.737 117.421 98.9623 117.421 80.7368H57.421C57.421 65.8251 69.5093 53.7368 84.421 53.7368V113.737ZM4.88617 27.6386C4.88617 12.727 16.9745 0.63863 31.8862 0.63863V60.6386C50.1116 60.6386 64.8862 45.864 64.8862 27.6386H4.88617ZM36.9925 46.1025C51.9042 46.1025 63.9925 58.1908 63.9925 73.1025H3.9925C3.9925 91.328 18.7671 106.103 36.9925 106.103V46.1025ZM-29.4211 31.4558C-29.4211 49.6811 -14.6466 64.4558 3.57886 64.4558V4.45577C18.4906 4.45577 30.5789 16.5441 30.5789 31.4558H-29.4211ZM29.7155 0.63863C11.4901 0.63863 -3.2845 15.4132 -3.2845 33.6386H56.7155C56.7155 48.5504 44.6272 60.6386 29.7155 60.6386V0.63863ZM63.9925 41.2729C63.9925 56.1846 51.9042 68.2729 36.9925 68.2729V8.27292C18.7671 8.27292 3.9925 23.0476 3.9925 41.2729H63.9925ZM4.85585 64.4558C23.0812 64.4558 37.8559 49.6812 37.8559 31.4558H-22.1441C-22.1441 16.5441 -10.0558 4.45577 4.85585 4.45577V64.4558ZM-3.2845 80.7368C-3.2845 98.9622 11.4901 113.737 29.7155 113.737V53.7368C44.6272 53.7368 56.7155 65.8252 56.7155 80.7368H-3.2845ZM12.1632 27.6386C12.1632 45.864 26.9378 60.6386 45.1632 60.6386V0.63863C60.0749 0.63863 72.1632 12.7269 72.1632 27.6386H12.1632Z" fill="#398aff" mask="url(#path-1-inside-1)"/>
</svg>
