<?xml version="1.0" encoding="iso-8859-1"?>
<!-- Generator: Adobe Illustrator 19.0.0, SVG Export Plug-In . SVG Version: 6.00 Build 0)  -->
<svg fill="white" xmlns="http://www.w3.org/2000/svg" xmlns:xlink="http://www.w3.org/1999/xlink"
	 viewBox="0 0 512 512">
<path d="M474.641,401.875c-1.004-3.092-3.675-5.342-6.888-5.808l-40.425-5.884l-18.075-36.625c-2.883-5.833-12.425-5.833-15.308,0
	l-18.075,36.625l-40.425,5.884c-3.212,0.467-5.883,2.717-6.887,5.808c-1.004,3.083-0.167,6.475,2.163,8.742l29.246,28.517
	l-6.904,40.258c-0.546,3.2,0.771,6.434,3.396,8.342c2.638,1.925,6.125,2.167,8.988,0.65l36.154-19.008l36.154,19.008
	c1.25,0.658,2.612,0.983,3.971,0.983c1.767,0,3.529-0.55,5.016-1.633c2.625-1.908,3.942-5.142,3.396-8.342l-6.904-40.258
	l29.246-28.517C474.808,408.35,475.645,404.958,474.641,401.875z M428.103,430.042c-2.008,1.958-2.925,4.783-2.454,7.55
	l4.742,27.642l-24.821-13.05c-1.242-0.658-2.608-0.983-3.971-0.983c-1.363,0-2.729,0.325-3.971,0.983l-24.821,13.05l4.742-27.642
	c0.471-2.767-0.446-5.592-2.454-7.55l-20.083-19.575l27.754-4.042c2.779-0.4,5.179-2.15,6.425-4.667l12.408-25.142l12.408,25.142
	c1.246,2.517,3.646,4.267,6.425,4.667l27.754,4.042L428.103,430.042z"/>
<path d="M404.899,0H63.649C49.512,0,36.941,10.4,36.941,24.5v460.867c0,14.1,12.542,26.633,26.65,26.633h257.158
	c4.712,0,8.533-3.817,8.533-8.533s-3.821-8.533-8.533-8.533H63.591c-4.696,0-9.583-4.883-9.583-9.567V24.5
	c0-4.683,4.912-7.433,9.642-7.433h341.25c4.65,0,7.508,2.808,7.508,7.4V323.2c0,4.717,3.821,8.533,8.533,8.533
	s8.533-3.817,8.533-8.533V24.467C429.474,10.392,419.037,0,404.899,0z"/>
<path d="M276.941,59.733h-85.333c-4.713,0-8.533,3.817-8.533,8.533c0,4.717,3.821,8.533,8.533,8.533h85.333
	c4.713,0,8.533-3.817,8.533-8.533C285.474,63.55,281.654,59.733,276.941,59.733z"/>
<path d="M353.741,119.467H114.808c-4.713,0-8.533,3.817-8.533,8.533c0,4.717,3.821,8.533,8.533,8.533h238.933
	c4.713,0,8.533-3.817,8.533-8.533C362.274,123.283,358.453,119.467,353.741,119.467z"/>
<path d="M353.741,179.2H114.808c-4.713,0-8.533,3.817-8.533,8.533c0,4.717,3.821,8.533,8.533,8.533h238.933
	c4.713,0,8.533-3.817,8.533-8.533C362.274,183.017,358.453,179.2,353.741,179.2z"/>
<path d="M353.741,238.933H114.808c-4.713,0-8.533,3.817-8.533,8.533c0,4.717,3.821,8.533,8.533,8.533h238.933
	c4.713,0,8.533-3.817,8.533-8.533C362.274,242.75,358.453,238.933,353.741,238.933z"/>
<path d="M353.741,298.667H114.808c-4.713,0-9.6,2.75-9.6,7.467v128c0,4.717,4.887,9.6,9.6,9.6h187.733
	c4.713,0,8.533-3.817,8.533-8.533s-3.821-8.533-8.533-8.533H122.274V315.733h221.867v50.133c0,4.717,3.821,8.533,8.533,8.533
	s8.533-3.817,8.533-8.533v-59.733C361.208,301.417,358.453,298.667,353.741,298.667z"/>
</svg>
