<svg width="337" height="393" viewBox="0 0 337 393" fill="none" xmlns="http://www.w3.org/2000/svg">
<path d="M286.884 216.835V274.318L286.493 274.315L282.791 276.192C280.921 277.14 250.716 291.996 198.604 291.996C171.929 291.996 139.509 288.101 102.199 276.451L98.2358 275.209L98.085 274.315V216.835C98.085 177.738 129.894 145.935 168.992 145.935H215.981C255.078 145.935 286.884 177.745 286.884 216.835ZM100.21 176.664C64.1682 164.63 39.1443 143.828 29.5261 117.96C13.7686 104.921 5.11621 87.623 5.11621 69.0795C5.11621 30.9908 42.4653 0 88.3735 0C121.569 0 150.273 16.2099 163.635 39.5786C172.047 34.4267 181.902 31.4037 192.486 31.4037C223.071 31.4037 247.862 56.1978 247.862 86.7829C247.862 117.368 223.068 142.162 192.486 142.162C173.566 142.162 156.879 132.662 146.894 118.183C136.737 126.53 123.967 132.799 109.409 135.937C105.585 136.759 101.629 137.358 97.5788 137.717C99.6719 145.889 102.9 156.361 107.366 169.466C108.059 171.501 107.538 173.76 106.019 175.285C104.939 176.373 103.485 176.959 102.002 176.959C101.402 176.959 100.799 176.862 100.21 176.664ZM92.8972 161.851C89.0915 150.071 86.4886 140.769 84.9807 133.607C84.6325 131.959 85.0382 130.239 86.0865 128.918C87.1348 127.6 88.711 126.814 90.3984 126.774C96.1463 126.645 101.74 126.002 107.025 124.864C120.578 121.946 132.354 115.989 141.372 108.08C138.637 101.521 137.111 94.3331 137.111 86.7793C137.111 70.8854 143.842 56.5963 154.566 46.497C143.595 25.8424 118.061 11.3236 88.3735 11.3236C48.7123 11.3236 16.4434 37.2342 16.4434 69.0759C16.4434 84.5857 24.0439 99.162 37.8411 110.119C38.6848 110.791 39.3238 111.688 39.6757 112.708C46.7772 133.269 65.493 150.459 92.8972 161.851Z" fill="#398aff"/>
<path d="M52.2 392.54C49.12 392.54 46.2 392.14 43.44 391.34C40.72 390.5 38.5 389.38 36.78 387.98C35.86 387.3 35.4 386.34 35.4 385.1C35.4 384.26 35.64 383.54 36.12 382.94C36.64 382.3 37.24 381.98 37.92 381.98C38.64 381.98 39.46 382.26 40.38 382.82C42.1 384.06 43.9 384.96 45.78 385.52C47.66 386.08 49.74 386.36 52.02 386.36C54.94 386.36 57.18 385.86 58.74 384.86C60.3 383.82 61.08 382.32 61.08 380.36C61.08 378.84 60.34 377.68 58.86 376.88C57.42 376.04 55 375.24 51.6 374.48C48.08 373.72 45.22 372.84 43.02 371.84C40.82 370.84 39.16 369.56 38.04 368C36.92 366.44 36.36 364.46 36.36 362.06C36.36 359.58 37.06 357.36 38.46 355.4C39.86 353.44 41.8 351.92 44.28 350.84C46.8 349.72 49.62 349.16 52.74 349.16C58.46 349.16 63.12 350.68 66.72 353.72C67.24 354.16 67.6 354.6 67.8 355.04C68.04 355.44 68.16 355.96 68.16 356.6C68.16 357.44 67.9 358.18 67.38 358.82C66.9 359.42 66.32 359.72 65.64 359.72C65.24 359.72 64.86 359.66 64.5 359.54C64.18 359.42 63.74 359.2 63.18 358.88C61.54 357.68 59.94 356.8 58.38 356.24C56.86 355.64 54.98 355.34 52.74 355.34C50.02 355.34 47.86 355.9 46.26 357.02C44.7 358.1 43.92 359.62 43.92 361.58C43.92 363.22 44.62 364.48 46.02 365.36C47.42 366.24 49.8 367.06 53.16 367.82C56.72 368.62 59.6 369.52 61.8 370.52C64.04 371.48 65.74 372.72 66.9 374.24C68.1 375.76 68.7 377.66 68.7 379.94C68.7 382.42 68 384.62 66.6 386.54C65.24 388.42 63.3 389.9 60.78 390.98C58.3 392.02 55.44 392.54 52.2 392.54ZM88.5417 392.48C85.5417 392.48 82.9017 391.86 80.6217 390.62C78.3817 389.38 76.6417 387.6 75.4017 385.28C74.1617 382.96 73.5417 380.26 73.5417 377.18C73.5417 374.1 74.1617 371.42 75.4017 369.14C76.6417 366.82 78.3817 365.04 80.6217 363.8C82.9017 362.56 85.5417 361.94 88.5417 361.94C91.5417 361.94 94.1617 362.56 96.4017 363.8C98.6817 365.04 100.422 366.82 101.622 369.14C102.862 371.42 103.482 374.1 103.482 377.18C103.482 380.26 102.862 382.96 101.622 385.28C100.422 387.6 98.6817 389.38 96.4017 390.62C94.1617 391.86 91.5417 392.48 88.5417 392.48ZM88.4817 386.66C90.9217 386.66 92.7817 385.86 94.0617 384.26C95.3417 382.66 95.9817 380.3 95.9817 377.18C95.9817 374.1 95.3417 371.76 94.0617 370.16C92.7817 368.52 90.9417 367.7 88.5417 367.7C86.1417 367.7 84.2817 368.52 82.9617 370.16C81.6817 371.76 81.0417 374.1 81.0417 377.18C81.0417 380.3 81.6817 382.66 82.9617 384.26C84.2417 385.86 86.0817 386.66 88.4817 386.66ZM126.533 361.94C129.093 361.94 131.353 362.56 133.313 363.8C135.273 365.04 136.793 366.8 137.873 369.08C138.993 371.36 139.553 374.02 139.553 377.06C139.553 380.1 138.993 382.8 137.873 385.16C136.793 387.48 135.253 389.28 133.253 390.56C131.293 391.84 129.053 392.48 126.533 392.48C124.413 392.48 122.513 392.02 120.833 391.1C119.193 390.18 117.933 388.9 117.053 387.26V388.76C117.053 389.84 116.713 390.7 116.033 391.34C115.353 391.98 114.453 392.3 113.333 392.3C112.213 392.3 111.313 391.98 110.633 391.34C109.993 390.7 109.673 389.84 109.673 388.76V352.88C109.673 351.84 110.013 351 110.693 350.36C111.413 349.72 112.333 349.4 113.453 349.4C114.573 349.4 115.473 349.7 116.153 350.3C116.833 350.9 117.173 351.72 117.173 352.76V366.92C118.053 365.32 119.313 364.1 120.953 363.26C122.593 362.38 124.453 361.94 126.533 361.94ZM124.553 386.66C126.913 386.66 128.753 385.82 130.073 384.14C131.393 382.46 132.053 380.1 132.053 377.06C132.053 374.06 131.393 371.76 130.073 370.16C128.793 368.56 126.953 367.76 124.553 367.76C122.153 367.76 120.293 368.58 118.973 370.22C117.693 371.82 117.053 374.14 117.053 377.18C117.053 380.22 117.693 382.56 118.973 384.2C120.293 385.84 122.153 386.66 124.553 386.66ZM162.089 362.06C163.129 361.98 163.949 362.2 164.549 362.72C165.149 363.24 165.449 364.02 165.449 365.06C165.449 366.14 165.189 366.94 164.669 367.46C164.149 367.98 163.209 368.32 161.849 368.48L160.049 368.66C157.689 368.9 155.949 369.7 154.829 371.06C153.749 372.42 153.209 374.12 153.209 376.16V388.76C153.209 389.92 152.849 390.82 152.129 391.46C151.409 392.06 150.509 392.36 149.429 392.36C148.349 392.36 147.449 392.06 146.729 391.46C146.049 390.82 145.709 389.92 145.709 388.76V365.54C145.709 364.42 146.049 363.56 146.729 362.96C147.449 362.36 148.329 362.06 149.369 362.06C150.409 362.06 151.249 362.36 151.889 362.96C152.529 363.52 152.849 364.34 152.849 365.42V367.82C153.609 366.06 154.729 364.7 156.209 363.74C157.729 362.78 159.409 362.24 161.249 362.12L162.089 362.06ZM191.311 383.96C191.991 383.96 192.531 384.22 192.931 384.74C193.371 385.26 193.591 385.96 193.591 386.84C193.591 388.08 192.851 389.12 191.371 389.96C190.011 390.72 188.471 391.34 186.751 391.82C185.031 392.26 183.391 392.48 181.831 392.48C177.111 392.48 173.371 391.12 170.611 388.4C167.851 385.68 166.471 381.96 166.471 377.24C166.471 374.24 167.071 371.58 168.271 369.26C169.471 366.94 171.151 365.14 173.311 363.86C175.511 362.58 177.991 361.94 180.751 361.94C183.391 361.94 185.691 362.52 187.651 363.68C189.611 364.84 191.131 366.48 192.211 368.6C193.291 370.72 193.831 373.22 193.831 376.1C193.831 377.82 193.071 378.68 191.551 378.68H173.851C174.091 381.44 174.871 383.48 176.191 384.8C177.511 386.08 179.431 386.72 181.951 386.72C183.231 386.72 184.351 386.56 185.311 386.24C186.311 385.92 187.431 385.48 188.671 384.92C189.871 384.28 190.751 383.96 191.311 383.96ZM180.931 367.22C178.891 367.22 177.251 367.86 176.011 369.14C174.811 370.42 174.091 372.26 173.851 374.66H187.411C187.331 372.22 186.731 370.38 185.611 369.14C184.491 367.86 182.931 367.22 180.931 367.22ZM236.715 364.22C237.035 363.5 237.455 362.96 237.975 362.6C238.535 362.24 239.135 362.06 239.775 362.06C240.695 362.06 241.515 362.38 242.235 363.02C242.995 363.62 243.375 364.38 243.375 365.3C243.375 365.78 243.255 366.26 243.015 366.74L231.915 389.96C231.555 390.72 231.035 391.3 230.355 391.7C229.715 392.1 228.995 392.3 228.195 392.3C227.435 392.3 226.695 392.1 225.975 391.7C225.295 391.3 224.775 390.72 224.415 389.96L213.255 366.74C213.055 366.34 212.955 365.88 212.955 365.36C212.955 364.44 213.335 363.66 214.095 363.02C214.895 362.38 215.795 362.06 216.795 362.06C218.235 362.06 219.295 362.76 219.975 364.16L228.375 382.7L236.715 364.22ZM260.749 392.48C257.749 392.48 255.109 391.86 252.829 390.62C250.589 389.38 248.849 387.6 247.609 385.28C246.369 382.96 245.749 380.26 245.749 377.18C245.749 374.1 246.369 371.42 247.609 369.14C248.849 366.82 250.589 365.04 252.829 363.8C255.109 362.56 257.749 361.94 260.749 361.94C263.749 361.94 266.369 362.56 268.609 363.8C270.889 365.04 272.629 366.82 273.829 369.14C275.069 371.42 275.689 374.1 275.689 377.18C275.689 380.26 275.069 382.96 273.829 385.28C272.629 387.6 270.889 389.38 268.609 390.62C266.369 391.86 263.749 392.48 260.749 392.48ZM260.689 386.66C263.129 386.66 264.989 385.86 266.269 384.26C267.549 382.66 268.189 380.3 268.189 377.18C268.189 374.1 267.549 371.76 266.269 370.16C264.989 368.52 263.149 367.7 260.749 367.7C258.349 367.7 256.489 368.52 255.169 370.16C253.889 371.76 253.249 374.1 253.249 377.18C253.249 380.3 253.889 382.66 255.169 384.26C256.449 385.86 258.289 386.66 260.689 386.66ZM294.9 392.48C291.98 392.48 289.4 391.86 287.16 390.62C284.96 389.38 283.26 387.62 282.06 385.34C280.86 383.06 280.26 380.4 280.26 377.36C280.26 374.32 280.88 371.64 282.12 369.32C283.4 366.96 285.18 365.14 287.46 363.86C289.74 362.58 292.36 361.94 295.32 361.94C296.88 361.94 298.44 362.16 300 362.6C301.6 363.04 303 363.64 304.2 364.4C305.48 365.24 306.12 366.3 306.12 367.58C306.12 368.46 305.9 369.18 305.46 369.74C305.06 370.26 304.52 370.52 303.84 370.52C303.4 370.52 302.94 370.42 302.46 370.22C301.98 370.02 301.5 369.78 301.02 369.5C300.14 368.98 299.3 368.58 298.5 368.3C297.7 367.98 296.78 367.82 295.74 367.82C293.26 367.82 291.34 368.64 289.98 370.28C288.66 371.88 288 374.2 288 377.24C288 380.24 288.66 382.56 289.98 384.2C291.34 385.8 293.26 386.6 295.74 386.6C296.74 386.6 297.62 386.46 298.38 386.18C299.18 385.86 300.06 385.44 301.02 384.92C301.62 384.56 302.14 384.3 302.58 384.14C303.02 383.94 303.46 383.84 303.9 383.84C304.54 383.84 305.08 384.12 305.52 384.68C305.96 385.24 306.18 385.94 306.18 386.78C306.18 387.46 306.02 388.06 305.7 388.58C305.42 389.06 304.94 389.5 304.26 389.9C303.02 390.7 301.58 391.34 299.94 391.82C298.3 392.26 296.62 392.48 294.9 392.48ZM334.397 383.96C335.077 383.96 335.617 384.22 336.017 384.74C336.457 385.26 336.677 385.96 336.677 386.84C336.677 388.08 335.937 389.12 334.457 389.96C333.097 390.72 331.557 391.34 329.837 391.82C328.117 392.26 326.477 392.48 324.917 392.48C320.197 392.48 316.457 391.12 313.697 388.4C310.937 385.68 309.557 381.96 309.557 377.24C309.557 374.24 310.157 371.58 311.357 369.26C312.557 366.94 314.237 365.14 316.397 363.86C318.597 362.58 321.077 361.94 323.837 361.94C326.477 361.94 328.777 362.52 330.737 363.68C332.697 364.84 334.217 366.48 335.297 368.6C336.377 370.72 336.917 373.22 336.917 376.1C336.917 377.82 336.157 378.68 334.637 378.68H316.937C317.177 381.44 317.957 383.48 319.277 384.8C320.597 386.08 322.517 386.72 325.037 386.72C326.317 386.72 327.437 386.56 328.397 386.24C329.397 385.92 330.517 385.48 331.757 384.92C332.957 384.28 333.837 383.96 334.397 383.96ZM324.017 367.22C321.977 367.22 320.337 367.86 319.097 369.14C317.897 370.42 317.177 372.26 316.937 374.66H330.497C330.417 372.22 329.817 370.38 328.697 369.14C327.577 367.86 326.017 367.22 324.017 367.22ZM319.577 357.86C319.017 358.7 318.317 359.12 317.477 359.12C316.837 359.12 316.257 358.88 315.737 358.4C315.257 357.92 315.017 357.36 315.017 356.72C315.017 356.2 315.197 355.68 315.557 355.16L320.837 348.02C321.317 347.42 321.777 346.98 322.217 346.7C322.657 346.42 323.197 346.28 323.837 346.28C324.517 346.28 325.077 346.42 325.517 346.7C325.957 346.98 326.397 347.44 326.837 348.08L332.117 355.16C332.477 355.64 332.657 356.16 332.657 356.72C332.657 357.36 332.397 357.92 331.877 358.4C331.397 358.88 330.837 359.12 330.197 359.12C329.357 359.12 328.657 358.7 328.097 357.86L323.837 351.26L319.577 357.86Z" fill="#398aff"/>
</svg>
