<svg width="12" height="12" viewBox="0 0 12 12" fill="none" xmlns="http://www.w3.org/2000/svg">
	<circle cx="6" cy="6" r="6" fill="#C4C4C4"/>
	<path d="M7.98354 9.30572C7.97664 9.30572 7.96802 9.30399 7.95768 9.30055C7.95079 9.2971 7.94217 9.29538 7.93183 9.29538C7.65265 9.24023 7.38726 9.20059 7.13565 9.17647C6.88404 9.14889 6.63416 9.13511 6.38599 9.13511C6.13439 9.13511 5.8845 9.14889 5.63634 9.17647C5.38818 9.20059 5.12623 9.24023 4.85049 9.29538C4.84015 9.29538 4.83154 9.2971 4.82464 9.30055C4.81775 9.30399 4.80913 9.30572 4.79879 9.30572C4.71952 9.30572 4.65403 9.27642 4.60233 9.21783C4.55408 9.15923 4.52995 9.09547 4.52995 9.02654C4.52995 8.9645 4.54891 8.90763 4.58682 8.85593C4.62818 8.80422 4.67988 8.7732 4.74192 8.76286C4.86256 8.73529 4.98319 8.71461 5.10382 8.70082C5.22791 8.68359 5.34854 8.66636 5.46573 8.64912V4.68888C5.24859 4.67853 5.06591 4.66475 4.9177 4.64751C4.7695 4.63028 4.68677 4.62166 4.66954 4.62166C4.60061 4.61132 4.54374 4.5803 4.49893 4.5286C4.45757 4.4769 4.43689 4.41659 4.43689 4.34765C4.43689 4.26149 4.46791 4.196 4.52995 4.15119C4.59199 4.10638 4.65231 4.08398 4.7109 4.08398H4.74192C4.74537 4.08398 4.78501 4.08915 4.86083 4.09949C4.93666 4.10638 5.03489 4.115 5.15552 4.12534C5.27961 4.13568 5.4192 4.14602 5.5743 4.15636C5.7294 4.16325 5.88967 4.1667 6.05511 4.1667C6.22055 4.1667 6.38255 4.16153 6.54109 4.15119C6.69964 4.1374 6.8444 4.115 6.97538 4.08398H7.03225C7.11152 4.08398 7.17701 4.11155 7.22871 4.1667C7.28041 4.2184 7.30626 4.27872 7.30626 4.34765L7.29592 8.64912C7.41655 8.66636 7.53719 8.68359 7.65782 8.70082C7.7819 8.71461 7.90771 8.73529 8.03524 8.76286C8.10072 8.7732 8.15415 8.80422 8.19551 8.85593C8.23687 8.90763 8.25755 8.9645 8.25755 9.02654C8.25755 9.10581 8.22825 9.1713 8.16966 9.223C8.11106 9.27814 8.04902 9.30572 7.98354 9.30572ZM7.23388 2.50712C7.23388 2.63465 7.20975 2.75528 7.1615 2.86902C7.11325 2.97932 7.04604 3.07582 6.95987 3.15854C6.87715 3.24126 6.77892 3.30675 6.66518 3.35501C6.55488 3.40326 6.43597 3.42739 6.30844 3.42739C6.18092 3.42739 6.06028 3.40326 5.94654 3.35501C5.83625 3.30675 5.73974 3.24126 5.65702 3.15854C5.5743 3.07582 5.50881 2.97932 5.46056 2.86902C5.4123 2.75528 5.38818 2.63465 5.38818 2.50712C5.38818 2.37959 5.4123 2.26068 5.46056 2.15039C5.50881 2.03665 5.5743 1.93842 5.65702 1.85569C5.73974 1.77297 5.83625 1.70749 5.94654 1.65923C6.06028 1.61098 6.18092 1.58685 6.30844 1.58685C6.43597 1.58685 6.55488 1.61098 6.66518 1.65923C6.77892 1.70749 6.87715 1.77297 6.95987 1.85569C7.04604 1.93842 7.11325 2.03665 7.1615 2.15039C7.20975 2.26068 7.23388 2.37959 7.23388 2.50712Z" fill="#398aff"/>
</svg>
